<mxfile host="app.diagrams.net" agent="Mozilla/5.0 (Macintosh; Intel Mac OS X 10_15_7) AppleWebKit/537.36 (KHTML, like Gecko) Chrome/136.0.0.0 Safari/537.36" version="27.0.6">
  <diagram name="Page-1" id="UER30-EKJ9fY8CnNnYoz">
    <mxGraphModel grid="0" page="0" gridSize="10" guides="1" tooltips="1" connect="1" arrows="0" fold="1" pageScale="1" pageWidth="850" pageHeight="1100" math="0" shadow="0">
      <root>
        <mxCell id="0" />
        <mxCell id="1" parent="0" />
        <mxCell id="8Y1xtCXJ-bNZxyuBdK8m-24" value="" style="shape=table;startSize=0;container=1;collapsible=0;childLayout=tableLayout;" vertex="1" parent="1">
          <mxGeometry x="-184" y="189" width="300" height="155.75" as="geometry" />
        </mxCell>
        <mxCell id="8Y1xtCXJ-bNZxyuBdK8m-25" value="" style="shape=tableRow;horizontal=0;startSize=0;swimlaneHead=0;swimlaneBody=0;strokeColor=inherit;top=0;left=0;bottom=0;right=0;collapsible=0;dropTarget=0;fillColor=none;points=[[0,0.5],[1,0.5]];portConstraint=eastwest;" vertex="1" parent="8Y1xtCXJ-bNZxyuBdK8m-24">
          <mxGeometry width="300" height="36" as="geometry" />
        </mxCell>
        <mxCell id="8Y1xtCXJ-bNZxyuBdK8m-26" value="#" style="shape=partialRectangle;html=1;whiteSpace=wrap;connectable=0;strokeColor=inherit;overflow=hidden;fillColor=none;top=0;left=0;bottom=0;right=0;pointerEvents=1;" vertex="1" parent="8Y1xtCXJ-bNZxyuBdK8m-25">
          <mxGeometry width="60" height="36" as="geometry">
            <mxRectangle width="60" height="36" as="alternateBounds" />
          </mxGeometry>
        </mxCell>
        <mxCell id="8Y1xtCXJ-bNZxyuBdK8m-27" value="Description" style="shape=partialRectangle;html=1;whiteSpace=wrap;connectable=0;strokeColor=inherit;overflow=hidden;fillColor=none;top=0;left=0;bottom=0;right=0;pointerEvents=1;" vertex="1" parent="8Y1xtCXJ-bNZxyuBdK8m-25">
          <mxGeometry x="60" width="72" height="36" as="geometry">
            <mxRectangle width="72" height="36" as="alternateBounds" />
          </mxGeometry>
        </mxCell>
        <mxCell id="8Y1xtCXJ-bNZxyuBdK8m-28" value="Qty" style="shape=partialRectangle;html=1;whiteSpace=wrap;connectable=0;strokeColor=inherit;overflow=hidden;fillColor=none;top=0;left=0;bottom=0;right=0;pointerEvents=1;" vertex="1" parent="8Y1xtCXJ-bNZxyuBdK8m-25">
          <mxGeometry x="132" width="48" height="36" as="geometry">
            <mxRectangle width="48" height="36" as="alternateBounds" />
          </mxGeometry>
        </mxCell>
        <mxCell id="8Y1xtCXJ-bNZxyuBdK8m-29" value="Unit price (USD)" style="shape=partialRectangle;html=1;whiteSpace=wrap;connectable=0;strokeColor=inherit;overflow=hidden;fillColor=none;top=0;left=0;bottom=0;right=0;pointerEvents=1;" vertex="1" parent="8Y1xtCXJ-bNZxyuBdK8m-25">
          <mxGeometry x="180" width="60" height="36" as="geometry">
            <mxRectangle width="60" height="36" as="alternateBounds" />
          </mxGeometry>
        </mxCell>
        <mxCell id="8Y1xtCXJ-bNZxyuBdK8m-30" value="Total" style="shape=partialRectangle;html=1;whiteSpace=wrap;connectable=0;strokeColor=inherit;overflow=hidden;fillColor=none;top=0;left=0;bottom=0;right=0;pointerEvents=1;" vertex="1" parent="8Y1xtCXJ-bNZxyuBdK8m-25">
          <mxGeometry x="240" width="60" height="36" as="geometry">
            <mxRectangle width="60" height="36" as="alternateBounds" />
          </mxGeometry>
        </mxCell>
        <mxCell id="8Y1xtCXJ-bNZxyuBdK8m-31" value="" style="shape=tableRow;horizontal=0;startSize=0;swimlaneHead=0;swimlaneBody=0;strokeColor=inherit;top=0;left=0;bottom=0;right=0;collapsible=0;dropTarget=0;fillColor=none;points=[[0,0.5],[1,0.5]];portConstraint=eastwest;" vertex="1" parent="8Y1xtCXJ-bNZxyuBdK8m-24">
          <mxGeometry y="36" width="300" height="40" as="geometry" />
        </mxCell>
        <mxCell id="8Y1xtCXJ-bNZxyuBdK8m-32" value="1" style="shape=partialRectangle;html=1;whiteSpace=wrap;connectable=0;strokeColor=inherit;overflow=hidden;fillColor=none;top=0;left=0;bottom=0;right=0;pointerEvents=1;" vertex="1" parent="8Y1xtCXJ-bNZxyuBdK8m-31">
          <mxGeometry width="60" height="40" as="geometry">
            <mxRectangle width="60" height="40" as="alternateBounds" />
          </mxGeometry>
        </mxCell>
        <mxCell id="8Y1xtCXJ-bNZxyuBdK8m-33" value="Computer" style="shape=partialRectangle;html=1;whiteSpace=wrap;connectable=0;strokeColor=inherit;overflow=hidden;fillColor=none;top=0;left=0;bottom=0;right=0;pointerEvents=1;" vertex="1" parent="8Y1xtCXJ-bNZxyuBdK8m-31">
          <mxGeometry x="60" width="72" height="40" as="geometry">
            <mxRectangle width="72" height="40" as="alternateBounds" />
          </mxGeometry>
        </mxCell>
        <mxCell id="8Y1xtCXJ-bNZxyuBdK8m-34" value="2" style="shape=partialRectangle;html=1;whiteSpace=wrap;connectable=0;strokeColor=inherit;overflow=hidden;fillColor=none;top=0;left=0;bottom=0;right=0;pointerEvents=1;" vertex="1" parent="8Y1xtCXJ-bNZxyuBdK8m-31">
          <mxGeometry x="132" width="48" height="40" as="geometry">
            <mxRectangle width="48" height="40" as="alternateBounds" />
          </mxGeometry>
        </mxCell>
        <mxCell id="8Y1xtCXJ-bNZxyuBdK8m-35" value="5,000" style="shape=partialRectangle;html=1;whiteSpace=wrap;connectable=0;strokeColor=inherit;overflow=hidden;fillColor=none;top=0;left=0;bottom=0;right=0;pointerEvents=1;" vertex="1" parent="8Y1xtCXJ-bNZxyuBdK8m-31">
          <mxGeometry x="180" width="60" height="40" as="geometry">
            <mxRectangle width="60" height="40" as="alternateBounds" />
          </mxGeometry>
        </mxCell>
        <mxCell id="8Y1xtCXJ-bNZxyuBdK8m-36" value="10,000" style="shape=partialRectangle;html=1;whiteSpace=wrap;connectable=0;strokeColor=inherit;overflow=hidden;fillColor=none;top=0;left=0;bottom=0;right=0;pointerEvents=1;" vertex="1" parent="8Y1xtCXJ-bNZxyuBdK8m-31">
          <mxGeometry x="240" width="60" height="40" as="geometry">
            <mxRectangle width="60" height="40" as="alternateBounds" />
          </mxGeometry>
        </mxCell>
        <mxCell id="8Y1xtCXJ-bNZxyuBdK8m-37" value="" style="shape=tableRow;horizontal=0;startSize=0;swimlaneHead=0;swimlaneBody=0;strokeColor=inherit;top=0;left=0;bottom=0;right=0;collapsible=0;dropTarget=0;fillColor=none;points=[[0,0.5],[1,0.5]];portConstraint=eastwest;" vertex="1" parent="8Y1xtCXJ-bNZxyuBdK8m-24">
          <mxGeometry y="76" width="300" height="40" as="geometry" />
        </mxCell>
        <mxCell id="8Y1xtCXJ-bNZxyuBdK8m-38" value="2" style="shape=partialRectangle;html=1;whiteSpace=wrap;connectable=0;strokeColor=inherit;overflow=hidden;fillColor=none;top=0;left=0;bottom=0;right=0;pointerEvents=1;" vertex="1" parent="8Y1xtCXJ-bNZxyuBdK8m-37">
          <mxGeometry width="60" height="40" as="geometry">
            <mxRectangle width="60" height="40" as="alternateBounds" />
          </mxGeometry>
        </mxCell>
        <mxCell id="8Y1xtCXJ-bNZxyuBdK8m-39" value="iPhone" style="shape=partialRectangle;html=1;whiteSpace=wrap;connectable=0;strokeColor=inherit;overflow=hidden;fillColor=none;top=0;left=0;bottom=0;right=0;pointerEvents=1;" vertex="1" parent="8Y1xtCXJ-bNZxyuBdK8m-37">
          <mxGeometry x="60" width="72" height="40" as="geometry">
            <mxRectangle width="72" height="40" as="alternateBounds" />
          </mxGeometry>
        </mxCell>
        <mxCell id="8Y1xtCXJ-bNZxyuBdK8m-40" value="1" style="shape=partialRectangle;html=1;whiteSpace=wrap;connectable=0;strokeColor=inherit;overflow=hidden;fillColor=none;top=0;left=0;bottom=0;right=0;pointerEvents=1;" vertex="1" parent="8Y1xtCXJ-bNZxyuBdK8m-37">
          <mxGeometry x="132" width="48" height="40" as="geometry">
            <mxRectangle width="48" height="40" as="alternateBounds" />
          </mxGeometry>
        </mxCell>
        <mxCell id="8Y1xtCXJ-bNZxyuBdK8m-41" value="2,000" style="shape=partialRectangle;html=1;whiteSpace=wrap;connectable=0;strokeColor=inherit;overflow=hidden;fillColor=none;top=0;left=0;bottom=0;right=0;pointerEvents=1;" vertex="1" parent="8Y1xtCXJ-bNZxyuBdK8m-37">
          <mxGeometry x="180" width="60" height="40" as="geometry">
            <mxRectangle width="60" height="40" as="alternateBounds" />
          </mxGeometry>
        </mxCell>
        <mxCell id="8Y1xtCXJ-bNZxyuBdK8m-42" value="2,200" style="shape=partialRectangle;html=1;whiteSpace=wrap;connectable=0;strokeColor=inherit;overflow=hidden;fillColor=none;top=0;left=0;bottom=0;right=0;pointerEvents=1;" vertex="1" parent="8Y1xtCXJ-bNZxyuBdK8m-37">
          <mxGeometry x="240" width="60" height="40" as="geometry">
            <mxRectangle width="60" height="40" as="alternateBounds" />
          </mxGeometry>
        </mxCell>
        <mxCell id="8Y1xtCXJ-bNZxyuBdK8m-43" value="" style="shape=tableRow;horizontal=0;startSize=0;swimlaneHead=0;swimlaneBody=0;strokeColor=inherit;top=0;left=0;bottom=0;right=0;collapsible=0;dropTarget=0;fillColor=none;points=[[0,0.5],[1,0.5]];portConstraint=eastwest;" vertex="1" parent="8Y1xtCXJ-bNZxyuBdK8m-24">
          <mxGeometry y="116" width="300" height="40" as="geometry" />
        </mxCell>
        <mxCell id="8Y1xtCXJ-bNZxyuBdK8m-44" value="3" style="shape=partialRectangle;html=1;whiteSpace=wrap;connectable=0;strokeColor=inherit;overflow=hidden;fillColor=none;top=0;left=0;bottom=0;right=0;pointerEvents=1;" vertex="1" parent="8Y1xtCXJ-bNZxyuBdK8m-43">
          <mxGeometry width="60" height="40" as="geometry">
            <mxRectangle width="60" height="40" as="alternateBounds" />
          </mxGeometry>
        </mxCell>
        <mxCell id="8Y1xtCXJ-bNZxyuBdK8m-45" value="Charger" style="shape=partialRectangle;html=1;whiteSpace=wrap;connectable=0;strokeColor=inherit;overflow=hidden;fillColor=none;top=0;left=0;bottom=0;right=0;pointerEvents=1;" vertex="1" parent="8Y1xtCXJ-bNZxyuBdK8m-43">
          <mxGeometry x="60" width="72" height="40" as="geometry">
            <mxRectangle width="72" height="40" as="alternateBounds" />
          </mxGeometry>
        </mxCell>
        <mxCell id="8Y1xtCXJ-bNZxyuBdK8m-46" value="3" style="shape=partialRectangle;html=1;whiteSpace=wrap;connectable=0;strokeColor=inherit;overflow=hidden;fillColor=none;top=0;left=0;bottom=0;right=0;pointerEvents=1;" vertex="1" parent="8Y1xtCXJ-bNZxyuBdK8m-43">
          <mxGeometry x="132" width="48" height="40" as="geometry">
            <mxRectangle width="48" height="40" as="alternateBounds" />
          </mxGeometry>
        </mxCell>
        <mxCell id="8Y1xtCXJ-bNZxyuBdK8m-47" value="100" style="shape=partialRectangle;html=1;whiteSpace=wrap;connectable=0;strokeColor=inherit;overflow=hidden;fillColor=none;top=0;left=0;bottom=0;right=0;pointerEvents=1;" vertex="1" parent="8Y1xtCXJ-bNZxyuBdK8m-43">
          <mxGeometry x="180" width="60" height="40" as="geometry">
            <mxRectangle width="60" height="40" as="alternateBounds" />
          </mxGeometry>
        </mxCell>
        <mxCell id="8Y1xtCXJ-bNZxyuBdK8m-48" value="300" style="shape=partialRectangle;html=1;whiteSpace=wrap;connectable=0;strokeColor=inherit;overflow=hidden;fillColor=none;top=0;left=0;bottom=0;right=0;pointerEvents=1;" vertex="1" parent="8Y1xtCXJ-bNZxyuBdK8m-43">
          <mxGeometry x="240" width="60" height="40" as="geometry">
            <mxRectangle width="60" height="40" as="alternateBounds" />
          </mxGeometry>
        </mxCell>
        <mxCell id="hk-BPhPLaZrLYhUmCBzE-4" value="" style="rounded=1;whiteSpace=wrap;html=1;dashed=1;strokeColor=default;" vertex="1" parent="1">
          <mxGeometry x="195" y="-121" width="720" height="769" as="geometry" />
        </mxCell>
        <mxCell id="hk-BPhPLaZrLYhUmCBzE-5" value="&lt;div&gt;&lt;b&gt;&lt;font style=&quot;font-size: 20px;&quot;&gt;Visual Encoder&lt;/font&gt;&lt;/b&gt;&lt;/div&gt;&lt;font style=&quot;font-size: 15px;&quot;&gt;A lightweight self-Supervised Pretrain on 2 million tabular images&lt;/font&gt;&lt;div&gt;&lt;br&gt;&lt;/div&gt;" style="rounded=1;whiteSpace=wrap;html=1;gradientColor=#F8FF38;" vertex="1" parent="1">
          <mxGeometry x="209.5" y="198" width="212" height="109.63" as="geometry" />
        </mxCell>
        <mxCell id="hk-BPhPLaZrLYhUmCBzE-6" value="UNITABLE ARCHITECTURE" style="text;html=1;align=center;verticalAlign=middle;whiteSpace=wrap;rounded=0;fontSize=20;fontStyle=1;labelBackgroundColor=none;textShadow=0;labelBorderColor=none;fontColor=#0000FF;" vertex="1" parent="1">
          <mxGeometry x="242" y="-96" width="198.5" height="39" as="geometry" />
        </mxCell>
        <mxCell id="hk-BPhPLaZrLYhUmCBzE-7" value="&lt;font face=&quot;Helvetica&quot; style=&quot;&quot;&gt;to learn structural and semantic representations&lt;/font&gt;" style="text;whiteSpace=wrap;html=1;align=center;fontSize=15;" vertex="1" parent="1">
          <mxGeometry x="209.5" y="397" width="211" height="75" as="geometry" />
        </mxCell>
        <mxCell id="hk-BPhPLaZrLYhUmCBzE-8" value="" style="shape=flexArrow;endArrow=classic;html=1;rounded=0;exitX=0.5;exitY=1;exitDx=0;exitDy=0;entryX=0.5;entryY=0;entryDx=0;entryDy=0;fillColor=#dae8fc;strokeColor=#6c8ebf;" edge="1" parent="1" source="hk-BPhPLaZrLYhUmCBzE-5" target="hk-BPhPLaZrLYhUmCBzE-7">
          <mxGeometry width="50" height="50" relative="1" as="geometry">
            <mxPoint x="562" y="394" as="sourcePoint" />
            <mxPoint x="612" y="344" as="targetPoint" />
          </mxGeometry>
        </mxCell>
        <mxCell id="hk-BPhPLaZrLYhUmCBzE-9" value="" style="rounded=1;whiteSpace=wrap;html=1;gradientColor=#0CFF6D;" vertex="1" parent="1">
          <mxGeometry x="475" y="-78" width="409" height="653" as="geometry" />
        </mxCell>
        <mxCell id="hk-BPhPLaZrLYhUmCBzE-10" value="&lt;font style=&quot;font-size: 20px;&quot;&gt;&lt;b&gt;3 task Decoder&lt;/b&gt;&lt;/font&gt;" style="text;html=1;align=center;verticalAlign=middle;whiteSpace=wrap;rounded=0;" vertex="1" parent="1">
          <mxGeometry x="577" y="-57" width="222" height="30" as="geometry" />
        </mxCell>
        <mxCell id="hk-BPhPLaZrLYhUmCBzE-11" value="&lt;div style=&quot;text-align: left;&quot;&gt;&lt;span style=&quot;background-color: transparent; color: light-dark(rgb(0, 0, 0), rgb(255, 255, 255));&quot;&gt;&lt;font style=&quot;font-size: 15px;&quot;&gt;&lt;b&gt;Task 1. Table structure decoder&lt;/b&gt;&lt;/font&gt;&lt;/span&gt;&lt;/div&gt;&lt;div&gt;&lt;font style=&quot;font-size: 15px;&quot;&gt;&amp;lt;thread&amp;gt;&lt;/font&gt;&lt;/div&gt;&lt;div&gt;&lt;font style=&quot;font-size: 15px;&quot;&gt;&amp;lt;tr&amp;gt;&lt;/font&gt;&lt;/div&gt;&lt;div&gt;&lt;font style=&quot;font-size: 15px;&quot;&gt;&amp;lt;td&amp;gt;&lt;/font&gt;&lt;/div&gt;&lt;div&gt;&lt;font style=&quot;font-size: 15px;&quot;&gt;&amp;lt;/tr&amp;gt;&lt;/font&gt;&lt;/div&gt;&lt;div&gt;&lt;font style=&quot;font-size: 15px;&quot;&gt;&amp;lt;td&amp;gt;&lt;/font&gt;&lt;/div&gt;&lt;div&gt;&lt;font style=&quot;font-size: 15px;&quot;&gt;&amp;lt;tr&amp;gt;&lt;/font&gt;&lt;/div&gt;&lt;div&gt;&lt;font style=&quot;font-size: 15px;&quot;&gt;&amp;lt;td ...&lt;/font&gt;&lt;/div&gt;" style="rounded=1;whiteSpace=wrap;html=1;fillColor=#fff2cc;strokeColor=#d6b656;shadow=1;strokeWidth=2;" vertex="1" parent="1">
          <mxGeometry x="499" y="-3" width="361" height="164" as="geometry" />
        </mxCell>
        <mxCell id="hk-BPhPLaZrLYhUmCBzE-12" value="&lt;div style=&quot;text-align: left;&quot;&gt;&lt;span style=&quot;background-color: transparent; color: light-dark(rgb(0, 0, 0), rgb(255, 255, 255));&quot;&gt;&lt;font style=&quot;font-size: 15px;&quot;&gt;&lt;b&gt;Task 2. Cell bbox decoder&lt;/b&gt;&lt;/font&gt;&lt;/span&gt;&lt;/div&gt;&lt;div&gt;&lt;span style=&quot;font-size: 15px;&quot;&gt;x1 y1 x2 y2,&amp;nbsp;&lt;/span&gt;&lt;/div&gt;&lt;div&gt;&lt;span style=&quot;font-size: 15px;&quot;&gt;x1&#39; y1&#39; x2&#39; y2&#39;&lt;/span&gt;&lt;/div&gt;" style="rounded=1;whiteSpace=wrap;html=1;fillColor=#fff2cc;strokeColor=#d6b656;glass=0;shadow=1;strokeWidth=2;" vertex="1" parent="1">
          <mxGeometry x="503" y="193" width="361" height="164" as="geometry" />
        </mxCell>
        <mxCell id="hk-BPhPLaZrLYhUmCBzE-13" value="&lt;div style=&quot;&quot;&gt;&lt;span style=&quot;background-color: transparent; color: light-dark(rgb(0, 0, 0), rgb(255, 255, 255));&quot;&gt;&lt;font style=&quot;font-size: 15px;&quot;&gt;&lt;b&gt;Task 3. Cell content decoder&lt;/b&gt;&lt;/font&gt;&lt;/span&gt;&lt;/div&gt;&lt;div style=&quot;&quot;&gt;&lt;font style=&quot;font-size: 15px;&quot;&gt;Row 1: ### ##D ##e ##s ##c ##r ##i ##p ##t ...&lt;/font&gt;&lt;/div&gt;&lt;div style=&quot;&quot;&gt;&lt;font style=&quot;font-size: 15px;&quot;&gt;Row 2:&amp;nbsp; ##1 ##C ##o ##m ##p ##u ##t ##e ##r ...&lt;/font&gt;&lt;/div&gt;&lt;div style=&quot;&quot;&gt;&lt;font style=&quot;font-size: 15px;&quot;&gt;Row 3: ##2 ##i ##P ##h ##o ##n ##e ##1 ##2 ...&lt;/font&gt;&lt;span style=&quot;font-size: 15px;&quot;&gt;&lt;/span&gt;&lt;/div&gt;" style="rounded=1;whiteSpace=wrap;html=1;fillColor=#fff2cc;strokeColor=#d6b656;glass=0;shadow=1;strokeWidth=2;align=center;" vertex="1" parent="1">
          <mxGeometry x="507.5" y="391" width="361" height="164" as="geometry" />
        </mxCell>
        <mxCell id="hk-BPhPLaZrLYhUmCBzE-87" value="" style="group" connectable="0" vertex="1" parent="1">
          <mxGeometry x="982" y="179" width="300" height="156.25" as="geometry" />
        </mxCell>
        <mxCell id="hk-BPhPLaZrLYhUmCBzE-39" value="" style="shape=table;startSize=0;container=1;collapsible=0;childLayout=tableLayout;" vertex="1" parent="hk-BPhPLaZrLYhUmCBzE-87">
          <mxGeometry width="300" height="156.25" as="geometry" />
        </mxCell>
        <mxCell id="hk-BPhPLaZrLYhUmCBzE-40" value="" style="shape=tableRow;horizontal=0;startSize=0;swimlaneHead=0;swimlaneBody=0;strokeColor=inherit;top=0;left=0;bottom=0;right=0;collapsible=0;dropTarget=0;fillColor=none;points=[[0,0.5],[1,0.5]];portConstraint=eastwest;" vertex="1" parent="hk-BPhPLaZrLYhUmCBzE-39">
          <mxGeometry width="300" height="36" as="geometry" />
        </mxCell>
        <mxCell id="hk-BPhPLaZrLYhUmCBzE-41" value="#" style="shape=partialRectangle;html=1;whiteSpace=wrap;connectable=0;strokeColor=inherit;overflow=hidden;fillColor=none;top=0;left=0;bottom=0;right=0;pointerEvents=1;" vertex="1" parent="hk-BPhPLaZrLYhUmCBzE-40">
          <mxGeometry width="60" height="36" as="geometry">
            <mxRectangle width="60" height="36" as="alternateBounds" />
          </mxGeometry>
        </mxCell>
        <mxCell id="hk-BPhPLaZrLYhUmCBzE-42" value="Description" style="shape=partialRectangle;html=1;whiteSpace=wrap;connectable=0;strokeColor=inherit;overflow=hidden;fillColor=none;top=0;left=0;bottom=0;right=0;pointerEvents=1;" vertex="1" parent="hk-BPhPLaZrLYhUmCBzE-40">
          <mxGeometry x="60" width="74" height="36" as="geometry">
            <mxRectangle width="74" height="36" as="alternateBounds" />
          </mxGeometry>
        </mxCell>
        <mxCell id="hk-BPhPLaZrLYhUmCBzE-43" value="Qty" style="shape=partialRectangle;html=1;whiteSpace=wrap;connectable=0;strokeColor=inherit;overflow=hidden;fillColor=none;top=0;left=0;bottom=0;right=0;pointerEvents=1;" vertex="1" parent="hk-BPhPLaZrLYhUmCBzE-40">
          <mxGeometry x="134" width="46" height="36" as="geometry">
            <mxRectangle width="46" height="36" as="alternateBounds" />
          </mxGeometry>
        </mxCell>
        <mxCell id="hk-BPhPLaZrLYhUmCBzE-44" value="Unit price (USD)" style="shape=partialRectangle;html=1;whiteSpace=wrap;connectable=0;strokeColor=inherit;overflow=hidden;fillColor=none;top=0;left=0;bottom=0;right=0;pointerEvents=1;" vertex="1" parent="hk-BPhPLaZrLYhUmCBzE-40">
          <mxGeometry x="180" width="60" height="36" as="geometry">
            <mxRectangle width="60" height="36" as="alternateBounds" />
          </mxGeometry>
        </mxCell>
        <mxCell id="hk-BPhPLaZrLYhUmCBzE-45" value="Total" style="shape=partialRectangle;html=1;whiteSpace=wrap;connectable=0;strokeColor=inherit;overflow=hidden;fillColor=none;top=0;left=0;bottom=0;right=0;pointerEvents=1;" vertex="1" parent="hk-BPhPLaZrLYhUmCBzE-40">
          <mxGeometry x="240" width="60" height="36" as="geometry">
            <mxRectangle width="60" height="36" as="alternateBounds" />
          </mxGeometry>
        </mxCell>
        <mxCell id="hk-BPhPLaZrLYhUmCBzE-46" value="" style="shape=tableRow;horizontal=0;startSize=0;swimlaneHead=0;swimlaneBody=0;strokeColor=inherit;top=0;left=0;bottom=0;right=0;collapsible=0;dropTarget=0;fillColor=none;points=[[0,0.5],[1,0.5]];portConstraint=eastwest;" vertex="1" parent="hk-BPhPLaZrLYhUmCBzE-39">
          <mxGeometry y="36" width="300" height="40" as="geometry" />
        </mxCell>
        <mxCell id="hk-BPhPLaZrLYhUmCBzE-47" value="1" style="shape=partialRectangle;html=1;whiteSpace=wrap;connectable=0;strokeColor=inherit;overflow=hidden;fillColor=none;top=0;left=0;bottom=0;right=0;pointerEvents=1;" vertex="1" parent="hk-BPhPLaZrLYhUmCBzE-46">
          <mxGeometry width="60" height="40" as="geometry">
            <mxRectangle width="60" height="40" as="alternateBounds" />
          </mxGeometry>
        </mxCell>
        <mxCell id="hk-BPhPLaZrLYhUmCBzE-48" value="Computer" style="shape=partialRectangle;html=1;whiteSpace=wrap;connectable=0;strokeColor=inherit;overflow=hidden;fillColor=none;top=0;left=0;bottom=0;right=0;pointerEvents=1;" vertex="1" parent="hk-BPhPLaZrLYhUmCBzE-46">
          <mxGeometry x="60" width="74" height="40" as="geometry">
            <mxRectangle width="74" height="40" as="alternateBounds" />
          </mxGeometry>
        </mxCell>
        <mxCell id="hk-BPhPLaZrLYhUmCBzE-49" value="2" style="shape=partialRectangle;html=1;whiteSpace=wrap;connectable=0;strokeColor=inherit;overflow=hidden;fillColor=none;top=0;left=0;bottom=0;right=0;pointerEvents=1;" vertex="1" parent="hk-BPhPLaZrLYhUmCBzE-46">
          <mxGeometry x="134" width="46" height="40" as="geometry">
            <mxRectangle width="46" height="40" as="alternateBounds" />
          </mxGeometry>
        </mxCell>
        <mxCell id="hk-BPhPLaZrLYhUmCBzE-50" value="5,000" style="shape=partialRectangle;html=1;whiteSpace=wrap;connectable=0;strokeColor=inherit;overflow=hidden;fillColor=none;top=0;left=0;bottom=0;right=0;pointerEvents=1;" vertex="1" parent="hk-BPhPLaZrLYhUmCBzE-46">
          <mxGeometry x="180" width="60" height="40" as="geometry">
            <mxRectangle width="60" height="40" as="alternateBounds" />
          </mxGeometry>
        </mxCell>
        <mxCell id="hk-BPhPLaZrLYhUmCBzE-51" value="10,000" style="shape=partialRectangle;html=1;whiteSpace=wrap;connectable=0;strokeColor=inherit;overflow=hidden;fillColor=none;top=0;left=0;bottom=0;right=0;pointerEvents=1;" vertex="1" parent="hk-BPhPLaZrLYhUmCBzE-46">
          <mxGeometry x="240" width="60" height="40" as="geometry">
            <mxRectangle width="60" height="40" as="alternateBounds" />
          </mxGeometry>
        </mxCell>
        <mxCell id="hk-BPhPLaZrLYhUmCBzE-52" value="" style="shape=tableRow;horizontal=0;startSize=0;swimlaneHead=0;swimlaneBody=0;strokeColor=inherit;top=0;left=0;bottom=0;right=0;collapsible=0;dropTarget=0;fillColor=none;points=[[0,0.5],[1,0.5]];portConstraint=eastwest;" vertex="1" parent="hk-BPhPLaZrLYhUmCBzE-39">
          <mxGeometry y="76" width="300" height="40" as="geometry" />
        </mxCell>
        <mxCell id="hk-BPhPLaZrLYhUmCBzE-53" value="" style="shape=partialRectangle;html=1;whiteSpace=wrap;connectable=0;strokeColor=inherit;overflow=hidden;fillColor=none;top=0;left=0;bottom=0;right=0;pointerEvents=1;" vertex="1" parent="hk-BPhPLaZrLYhUmCBzE-52">
          <mxGeometry width="60" height="40" as="geometry">
            <mxRectangle width="60" height="40" as="alternateBounds" />
          </mxGeometry>
        </mxCell>
        <mxCell id="hk-BPhPLaZrLYhUmCBzE-54" value="" style="shape=partialRectangle;html=1;whiteSpace=wrap;connectable=0;strokeColor=inherit;overflow=hidden;fillColor=none;top=0;left=0;bottom=0;right=0;pointerEvents=1;" vertex="1" parent="hk-BPhPLaZrLYhUmCBzE-52">
          <mxGeometry x="60" width="74" height="40" as="geometry">
            <mxRectangle width="74" height="40" as="alternateBounds" />
          </mxGeometry>
        </mxCell>
        <mxCell id="hk-BPhPLaZrLYhUmCBzE-55" value="" style="shape=partialRectangle;html=1;whiteSpace=wrap;connectable=0;strokeColor=inherit;overflow=hidden;fillColor=none;top=0;left=0;bottom=0;right=0;pointerEvents=1;" vertex="1" parent="hk-BPhPLaZrLYhUmCBzE-52">
          <mxGeometry x="134" width="46" height="40" as="geometry">
            <mxRectangle width="46" height="40" as="alternateBounds" />
          </mxGeometry>
        </mxCell>
        <mxCell id="hk-BPhPLaZrLYhUmCBzE-56" value="" style="shape=partialRectangle;html=1;whiteSpace=wrap;connectable=0;strokeColor=inherit;overflow=hidden;fillColor=none;top=0;left=0;bottom=0;right=0;pointerEvents=1;" vertex="1" parent="hk-BPhPLaZrLYhUmCBzE-52">
          <mxGeometry x="180" width="60" height="40" as="geometry">
            <mxRectangle width="60" height="40" as="alternateBounds" />
          </mxGeometry>
        </mxCell>
        <mxCell id="hk-BPhPLaZrLYhUmCBzE-57" value="" style="shape=partialRectangle;html=1;whiteSpace=wrap;connectable=0;strokeColor=inherit;overflow=hidden;fillColor=none;top=0;left=0;bottom=0;right=0;pointerEvents=1;" vertex="1" parent="hk-BPhPLaZrLYhUmCBzE-52">
          <mxGeometry x="240" width="60" height="40" as="geometry">
            <mxRectangle width="60" height="40" as="alternateBounds" />
          </mxGeometry>
        </mxCell>
        <mxCell id="hk-BPhPLaZrLYhUmCBzE-58" value="" style="shape=tableRow;horizontal=0;startSize=0;swimlaneHead=0;swimlaneBody=0;strokeColor=inherit;top=0;left=0;bottom=0;right=0;collapsible=0;dropTarget=0;fillColor=none;points=[[0,0.5],[1,0.5]];portConstraint=eastwest;" vertex="1" parent="hk-BPhPLaZrLYhUmCBzE-39">
          <mxGeometry y="116" width="300" height="40" as="geometry" />
        </mxCell>
        <mxCell id="hk-BPhPLaZrLYhUmCBzE-59" value="" style="shape=partialRectangle;html=1;whiteSpace=wrap;connectable=0;strokeColor=inherit;overflow=hidden;fillColor=none;top=0;left=0;bottom=0;right=0;pointerEvents=1;" vertex="1" parent="hk-BPhPLaZrLYhUmCBzE-58">
          <mxGeometry width="60" height="40" as="geometry">
            <mxRectangle width="60" height="40" as="alternateBounds" />
          </mxGeometry>
        </mxCell>
        <mxCell id="hk-BPhPLaZrLYhUmCBzE-60" value="" style="shape=partialRectangle;html=1;whiteSpace=wrap;connectable=0;strokeColor=inherit;overflow=hidden;fillColor=none;top=0;left=0;bottom=0;right=0;pointerEvents=1;" vertex="1" parent="hk-BPhPLaZrLYhUmCBzE-58">
          <mxGeometry x="60" width="74" height="40" as="geometry">
            <mxRectangle width="74" height="40" as="alternateBounds" />
          </mxGeometry>
        </mxCell>
        <mxCell id="hk-BPhPLaZrLYhUmCBzE-61" value="" style="shape=partialRectangle;html=1;whiteSpace=wrap;connectable=0;strokeColor=inherit;overflow=hidden;fillColor=none;top=0;left=0;bottom=0;right=0;pointerEvents=1;" vertex="1" parent="hk-BPhPLaZrLYhUmCBzE-58">
          <mxGeometry x="134" width="46" height="40" as="geometry">
            <mxRectangle width="46" height="40" as="alternateBounds" />
          </mxGeometry>
        </mxCell>
        <mxCell id="hk-BPhPLaZrLYhUmCBzE-62" value="" style="shape=partialRectangle;html=1;whiteSpace=wrap;connectable=0;strokeColor=inherit;overflow=hidden;fillColor=none;top=0;left=0;bottom=0;right=0;pointerEvents=1;" vertex="1" parent="hk-BPhPLaZrLYhUmCBzE-58">
          <mxGeometry x="180" width="60" height="40" as="geometry">
            <mxRectangle width="60" height="40" as="alternateBounds" />
          </mxGeometry>
        </mxCell>
        <mxCell id="hk-BPhPLaZrLYhUmCBzE-63" value="" style="shape=partialRectangle;html=1;whiteSpace=wrap;connectable=0;strokeColor=inherit;overflow=hidden;fillColor=none;top=0;left=0;bottom=0;right=0;pointerEvents=1;" vertex="1" parent="hk-BPhPLaZrLYhUmCBzE-58">
          <mxGeometry x="240" width="60" height="40" as="geometry">
            <mxRectangle width="60" height="40" as="alternateBounds" />
          </mxGeometry>
        </mxCell>
        <mxCell id="hk-BPhPLaZrLYhUmCBzE-64" value="" style="rounded=0;whiteSpace=wrap;html=1;fillColor=none;arcSize=50;strokeColor=#FF0000;" vertex="1" parent="hk-BPhPLaZrLYhUmCBzE-87">
          <mxGeometry x="7" y="5" width="44" height="26" as="geometry" />
        </mxCell>
        <mxCell id="hk-BPhPLaZrLYhUmCBzE-65" value="" style="rounded=0;whiteSpace=wrap;html=1;fillColor=none;arcSize=50;strokeColor=#FF0000;" vertex="1" parent="hk-BPhPLaZrLYhUmCBzE-87">
          <mxGeometry x="63" y="5" width="66" height="26" as="geometry" />
        </mxCell>
        <mxCell id="hk-BPhPLaZrLYhUmCBzE-66" value="" style="rounded=0;whiteSpace=wrap;html=1;fillColor=none;arcSize=50;strokeColor=#FF0000;" vertex="1" parent="hk-BPhPLaZrLYhUmCBzE-87">
          <mxGeometry x="136" y="5" width="39" height="26" as="geometry" />
        </mxCell>
        <mxCell id="hk-BPhPLaZrLYhUmCBzE-67" value="" style="rounded=0;whiteSpace=wrap;html=1;fillColor=none;arcSize=50;strokeColor=#FF0000;" vertex="1" parent="hk-BPhPLaZrLYhUmCBzE-87">
          <mxGeometry x="183" y="5" width="55" height="26" as="geometry" />
        </mxCell>
        <mxCell id="hk-BPhPLaZrLYhUmCBzE-68" value="" style="rounded=0;whiteSpace=wrap;html=1;fillColor=none;arcSize=50;strokeColor=#FF0000;" vertex="1" parent="hk-BPhPLaZrLYhUmCBzE-87">
          <mxGeometry x="250" y="5" width="44" height="26" as="geometry" />
        </mxCell>
        <mxCell id="hk-BPhPLaZrLYhUmCBzE-69" value="" style="rounded=0;whiteSpace=wrap;html=1;fillColor=none;arcSize=50;strokeColor=#FF0000;" vertex="1" parent="hk-BPhPLaZrLYhUmCBzE-87">
          <mxGeometry x="9" y="41" width="44" height="26" as="geometry" />
        </mxCell>
        <mxCell id="hk-BPhPLaZrLYhUmCBzE-70" value="" style="rounded=0;whiteSpace=wrap;html=1;fillColor=none;arcSize=50;strokeColor=#FF0000;" vertex="1" parent="hk-BPhPLaZrLYhUmCBzE-87">
          <mxGeometry x="65" y="43" width="62" height="26" as="geometry" />
        </mxCell>
        <mxCell id="hk-BPhPLaZrLYhUmCBzE-71" value="" style="rounded=0;whiteSpace=wrap;html=1;fillColor=none;arcSize=50;strokeColor=#FF0000;" vertex="1" parent="hk-BPhPLaZrLYhUmCBzE-87">
          <mxGeometry x="136" y="41" width="39" height="26" as="geometry" />
        </mxCell>
        <mxCell id="hk-BPhPLaZrLYhUmCBzE-72" value="" style="rounded=0;whiteSpace=wrap;html=1;fillColor=none;arcSize=50;strokeColor=#FF0000;" vertex="1" parent="hk-BPhPLaZrLYhUmCBzE-87">
          <mxGeometry x="188.5" y="41" width="44" height="26" as="geometry" />
        </mxCell>
        <mxCell id="hk-BPhPLaZrLYhUmCBzE-73" value="" style="rounded=0;whiteSpace=wrap;html=1;fillColor=none;arcSize=50;strokeColor=#FF0000;" vertex="1" parent="hk-BPhPLaZrLYhUmCBzE-87">
          <mxGeometry x="250" y="41" width="44" height="26" as="geometry" />
        </mxCell>
        <mxCell id="hk-BPhPLaZrLYhUmCBzE-74" value="" style="rounded=0;whiteSpace=wrap;html=1;fillColor=none;arcSize=50;strokeColor=#FF0000;" vertex="1" parent="hk-BPhPLaZrLYhUmCBzE-87">
          <mxGeometry x="9" y="83" width="44" height="26" as="geometry" />
        </mxCell>
        <mxCell id="hk-BPhPLaZrLYhUmCBzE-75" value="" style="rounded=0;whiteSpace=wrap;html=1;fillColor=none;arcSize=50;strokeColor=#FF0000;" vertex="1" parent="hk-BPhPLaZrLYhUmCBzE-87">
          <mxGeometry x="9" y="124" width="44" height="26" as="geometry" />
        </mxCell>
        <mxCell id="hk-BPhPLaZrLYhUmCBzE-76" value="" style="rounded=0;whiteSpace=wrap;html=1;fillColor=none;arcSize=50;strokeColor=#FF0000;" vertex="1" parent="hk-BPhPLaZrLYhUmCBzE-87">
          <mxGeometry x="65" y="84" width="62" height="26" as="geometry" />
        </mxCell>
        <mxCell id="hk-BPhPLaZrLYhUmCBzE-77" value="" style="rounded=0;whiteSpace=wrap;html=1;fillColor=none;arcSize=50;strokeColor=#FF0000;" vertex="1" parent="hk-BPhPLaZrLYhUmCBzE-87">
          <mxGeometry x="136" y="84" width="40" height="26" as="geometry" />
        </mxCell>
        <mxCell id="hk-BPhPLaZrLYhUmCBzE-78" value="" style="rounded=0;whiteSpace=wrap;html=1;fillColor=none;arcSize=50;strokeColor=#FF0000;" vertex="1" parent="hk-BPhPLaZrLYhUmCBzE-87">
          <mxGeometry x="189" y="84" width="43.5" height="26" as="geometry" />
        </mxCell>
        <mxCell id="hk-BPhPLaZrLYhUmCBzE-80" value="" style="rounded=0;whiteSpace=wrap;html=1;fillColor=none;arcSize=50;strokeColor=#FF0000;" vertex="1" parent="hk-BPhPLaZrLYhUmCBzE-87">
          <mxGeometry x="250" y="84" width="44" height="26" as="geometry" />
        </mxCell>
        <mxCell id="hk-BPhPLaZrLYhUmCBzE-81" value="" style="rounded=0;whiteSpace=wrap;html=1;fillColor=none;arcSize=50;strokeColor=#FF0000;" vertex="1" parent="hk-BPhPLaZrLYhUmCBzE-87">
          <mxGeometry x="250" y="124" width="44" height="26" as="geometry" />
        </mxCell>
        <mxCell id="hk-BPhPLaZrLYhUmCBzE-82" value="" style="rounded=0;whiteSpace=wrap;html=1;fillColor=none;arcSize=50;strokeColor=#FF0000;" vertex="1" parent="hk-BPhPLaZrLYhUmCBzE-87">
          <mxGeometry x="188.5" y="124" width="44" height="26" as="geometry" />
        </mxCell>
        <mxCell id="hk-BPhPLaZrLYhUmCBzE-83" value="" style="rounded=0;whiteSpace=wrap;html=1;fillColor=none;arcSize=50;strokeColor=#FF0000;" vertex="1" parent="hk-BPhPLaZrLYhUmCBzE-87">
          <mxGeometry x="136" y="124" width="40" height="26" as="geometry" />
        </mxCell>
        <mxCell id="hk-BPhPLaZrLYhUmCBzE-85" value="" style="rounded=0;whiteSpace=wrap;html=1;fillColor=none;arcSize=50;strokeColor=#FF0000;" vertex="1" parent="hk-BPhPLaZrLYhUmCBzE-87">
          <mxGeometry x="67" y="124" width="62" height="26" as="geometry" />
        </mxCell>
        <mxCell id="hk-BPhPLaZrLYhUmCBzE-89" value="&lt;span style=&quot;font-size:13.0pt;font-family:&amp;quot;Times New Roman&amp;quot;,serif;&lt;br/&gt;mso-fareast-font-family:&amp;quot;Times New Roman&amp;quot;;mso-ansi-language:#0C00;mso-fareast-language:&lt;br/&gt;EN-US;mso-bidi-language:AR-SA&quot;&gt;VQ-VAE and&amp;nbsp;&lt;/span&gt;&lt;span style=&quot;font-size: 13pt; font-family: &amp;quot;Times New Roman&amp;quot;, serif;&quot;&gt;Gumbel-Softmax trick&lt;/span&gt;&lt;span style=&quot;font-size: medium;&quot;&gt;&lt;/span&gt;" style="text;whiteSpace=wrap;html=1;align=center;" vertex="1" parent="1">
          <mxGeometry x="227" y="48" width="179.5" height="70" as="geometry" />
        </mxCell>
        <mxCell id="hk-BPhPLaZrLYhUmCBzE-91" value="" style="shape=flexArrow;endArrow=classic;html=1;rounded=0;exitX=0.5;exitY=0;exitDx=0;exitDy=0;fillColor=#dae8fc;strokeColor=#6c8ebf;" edge="1" parent="1" source="hk-BPhPLaZrLYhUmCBzE-5" target="hk-BPhPLaZrLYhUmCBzE-89">
          <mxGeometry width="50" height="50" relative="1" as="geometry">
            <mxPoint x="187" y="358" as="sourcePoint" />
            <mxPoint x="186" y="432" as="targetPoint" />
          </mxGeometry>
        </mxCell>
        <mxCell id="hk-BPhPLaZrLYhUmCBzE-92" value="aim" style="text;html=1;align=center;verticalAlign=middle;whiteSpace=wrap;rounded=0;fontSize=15;" vertex="1" parent="1">
          <mxGeometry x="251" y="323" width="60" height="30" as="geometry" />
        </mxCell>
        <mxCell id="hk-BPhPLaZrLYhUmCBzE-93" value="use" style="text;html=1;align=center;verticalAlign=middle;whiteSpace=wrap;rounded=0;fontSize=15;" vertex="1" parent="1">
          <mxGeometry x="248" y="143" width="60" height="30" as="geometry" />
        </mxCell>
        <mxCell id="hk-BPhPLaZrLYhUmCBzE-94" value="" style="endArrow=classic;html=1;rounded=0;entryX=0;entryY=0.5;entryDx=0;entryDy=0;exitX=0.99;exitY=-0.019;exitDx=0;exitDy=0;exitPerimeter=0;" edge="1" parent="1" source="8Y1xtCXJ-bNZxyuBdK8m-37" target="hk-BPhPLaZrLYhUmCBzE-4">
          <mxGeometry width="50" height="50" relative="1" as="geometry">
            <mxPoint x="138" y="264" as="sourcePoint" />
            <mxPoint x="423" y="229" as="targetPoint" />
          </mxGeometry>
        </mxCell>
        <mxCell id="hk-BPhPLaZrLYhUmCBzE-95" value="" style="endArrow=classic;html=1;rounded=0;entryX=0;entryY=0.5;entryDx=0;entryDy=0;" edge="1" parent="1" target="hk-BPhPLaZrLYhUmCBzE-52">
          <mxGeometry width="50" height="50" relative="1" as="geometry">
            <mxPoint x="913" y="275" as="sourcePoint" />
            <mxPoint x="747" y="229" as="targetPoint" />
          </mxGeometry>
        </mxCell>
        <mxCell id="hk-BPhPLaZrLYhUmCBzE-96" value="&lt;font style=&quot;font-size: 15px;&quot;&gt;Table Input&lt;/font&gt;" style="text;html=1;align=center;verticalAlign=middle;whiteSpace=wrap;rounded=0;fontStyle=1" vertex="1" parent="1">
          <mxGeometry x="-67" y="135" width="82" height="30" as="geometry" />
        </mxCell>
        <mxCell id="hk-BPhPLaZrLYhUmCBzE-98" value="&lt;font style=&quot;font-size: 15px;&quot;&gt;TSR output&lt;/font&gt;" style="text;html=1;align=center;verticalAlign=middle;whiteSpace=wrap;rounded=0;fontStyle=1" vertex="1" parent="1">
          <mxGeometry x="1078" y="129" width="127" height="30" as="geometry" />
        </mxCell>
      </root>
    </mxGraphModel>
  </diagram>
</mxfile>
